<?xml version="1.0" encoding="UTF-8" standalone="no"?>
<!DOCTYPE svg PUBLIC "-//W3C//DTD SVG 1.1//EN" "http://www.w3.org/Graphics/SVG/1.1/DTD/svg11.dtd">
<svg width="100%" height="100%" viewBox="0 0 24 24" version="1.1" xmlns="http://www.w3.org/2000/svg" xmlns:xlink="http://www.w3.org/1999/xlink" xml:space="preserve" xmlns:serif="http://www.serif.com/" style="fill-rule:evenodd;clip-rule:evenodd;stroke-linejoin:round;stroke-miterlimit:2;">
    <g transform="matrix(1,0,0,1,-67.001216,-28.893554)">
        <g id="Book" transform="matrix(1,0,0,1.00613,67.001216,28.893554)">
            <rect x="0" y="0" width="24" height="23.854" style="fill:none;"/>
            <clipPath id="_clip1">
                <rect x="0" y="0" width="24" height="23.854"/>
            </clipPath>
            <g clip-path="url(#_clip1)">
                <g transform="matrix(1.200863,0,0,1.12614,-37.014375,-35.011665)">
                    <path d="M47.953,31.986L47.953,51.376L35.9,51.376C34.674,51.376 33.679,50.322 33.679,49.022C33.679,45.293 33.679,38.069 33.679,34.34C33.679,33.04 34.674,31.986 35.9,31.986C39.911,31.986 47.953,31.986 47.953,31.986Z" style="fill:rgb(0,189,255);"/>
                </g>
                <g transform="matrix(1.200863,0,0,1.12614,-37.014375,-35.011665)">
                    <path d="M48.798,31.986L48.798,51.376C48.798,51.871 48.419,52.272 47.953,52.272L36.022,52.272C34.261,52.272 32.834,50.759 32.834,48.893L32.834,34.469C32.834,32.603 34.261,31.09 36.022,31.09L47.953,31.09C48.419,31.09 48.798,31.491 48.798,31.986ZM47.107,32.882L36.022,32.882C35.195,32.882 34.525,33.592 34.525,34.469L34.525,48.893C34.525,49.77 35.195,50.48 36.022,50.48L47.107,50.48L47.107,32.882Z"/>
                </g>
                <g transform="matrix(0.908123,0,0,1.048475,-23.990792,-30.94898)">
                    <path d="M39.632,30.48L39.632,36.855L37.508,35.853L35.385,36.855L35.385,30.48L39.632,30.48Z" style="fill:rgb(255,186,0);"/>
                </g>
                <g transform="matrix(0.908123,0,0,1.048475,-23.990792,-30.94898)">
                    <path d="M40.75,30.48L40.75,36.855C40.75,37.195 40.541,37.509 40.202,37.683C39.862,37.856 39.441,37.862 39.095,37.699L37.508,36.951L35.922,37.699C35.576,37.862 35.155,37.856 34.815,37.683C34.475,37.509 34.267,37.195 34.267,36.855L34.267,30.48C34.267,29.949 34.768,29.518 35.385,29.518L39.632,29.518C40.249,29.518 40.75,29.949 40.75,30.48ZM38.514,31.443L36.503,31.443L36.503,35.231L36.971,35.01C37.306,34.852 37.711,34.852 38.045,35.01L38.514,35.231L38.514,31.443Z"/>
                </g>
            </g>
        </g>
    </g>
</svg>
