<?xml version="1.0" encoding="UTF-8" standalone="no"?>
<!DOCTYPE svg PUBLIC "-//W3C//DTD SVG 1.1//EN" "http://www.w3.org/Graphics/SVG/1.1/DTD/svg11.dtd">
<svg width="100%" height="100%" viewBox="0 0 24 24" version="1.1" xmlns="http://www.w3.org/2000/svg" xmlns:xlink="http://www.w3.org/1999/xlink" xml:space="preserve" xmlns:serif="http://www.serif.com/" style="fill-rule:evenodd;clip-rule:evenodd;stroke-linejoin:round;stroke-miterlimit:2;">
    <g transform="matrix(1.673771,0,0,1.673771,-9.840026,-8.041248)">
        <path d="M15.604,5.326C16.284,10.816 17.844,10.174 17.978,13.691C18.082,16.41 15.768,18.622 13.047,18.622C10.325,18.622 8.115,16.412 8.115,13.691C8.115,10.969 9.958,9.777 9.958,9.777C11.051,10.601 11.47,10.692 11.979,11.679C12.277,9.382 13.857,7.33 15.604,5.326Z" style="fill:rgb(255,67,0);"/>
    </g>
    <g transform="matrix(1.592863,0,0,1.592863,-8.784306,-4.550069)">
        <path d="M14.692,9.35C14.937,10.047 15.194,10.571 15.435,11.043C15.823,11.806 16.174,12.369 16.228,13.757C16.294,15.493 14.784,16.87 13.047,16.87C11.292,16.87 9.867,15.445 9.867,13.691C9.867,13.045 10.023,12.533 10.214,12.149C10.285,12.241 10.353,12.349 10.422,12.482C10.773,13.163 11.526,13.537 12.281,13.405C13.036,13.273 13.617,12.665 13.716,11.905C13.833,11.008 14.193,10.165 14.692,9.35Z" style="fill:rgb(255,238,0);"/>
    </g>
    <g transform="matrix(1.673771,0,0,1.673771,-9.840026,-8.041248)">
        <path d="M16.122,5.262C16.517,8.456 17.221,9.509 17.748,10.578C18.137,11.366 18.441,12.161 18.499,13.671C18.614,16.683 16.062,19.143 13.047,19.143C10.037,19.143 7.594,16.7 7.594,13.691C7.594,10.656 9.675,9.339 9.675,9.339C9.859,9.221 10.097,9.229 10.272,9.361C10.941,9.866 11.371,10.123 11.719,10.444C12.314,8.511 13.693,6.725 15.211,4.983C15.347,4.828 15.56,4.767 15.757,4.827C15.954,4.887 16.096,5.057 16.122,5.262ZM15.255,6.537C13.887,8.183 12.739,9.875 12.496,11.747C12.466,11.973 12.293,12.154 12.069,12.193C11.844,12.232 11.62,12.121 11.516,11.918C11.104,11.119 10.742,10.976 9.974,10.434C9.518,10.857 8.637,11.905 8.637,13.691C8.637,16.125 10.613,18.101 13.047,18.101C15.475,18.101 17.55,16.137 17.457,13.71C17.394,12.062 16.992,11.39 16.531,10.485C16.097,9.631 15.608,8.592 15.255,6.537Z"/>
    </g>
</svg>
