<?xml version="1.0" encoding="UTF-8" standalone="no"?>
<!DOCTYPE svg PUBLIC "-//W3C//DTD SVG 1.1//EN" "http://www.w3.org/Graphics/SVG/1.1/DTD/svg11.dtd">
<svg width="100%" height="100%" viewBox="0 0 24 24" version="1.1" xmlns="http://www.w3.org/2000/svg" xmlns:xlink="http://www.w3.org/1999/xlink" xml:space="preserve" xmlns:serif="http://www.serif.com/" style="fill-rule:evenodd;clip-rule:evenodd;stroke-linejoin:round;stroke-miterlimit:2;">
    <g transform="matrix(1,0,0,1,0,-28.893554)">
        <g id="Wallet" transform="matrix(1,0,0,1.00613,0,28.893554)">
            <rect x="0" y="0" width="24" height="23.854" style="fill:none;"/>
            <clipPath id="_clip1">
                <rect x="0" y="0" width="24" height="23.854"/>
            </clipPath>
            <g clip-path="url(#_clip1)">
                <g transform="matrix(0.859596,0,0,0.872797,-0.018457,-27.826668)">
                    <path d="M22.006,36.862C22.535,36.862 23.042,37.068 23.416,37.434C23.79,37.8 24,38.296 24,38.814C24,42.21 24,48.848 24,48.848L1.186,48.848L1.186,39.226C1.186,38.599 1.441,37.998 1.894,37.555C2.347,37.111 2.961,36.862 3.601,36.862C8.131,36.862 17.821,36.862 22.006,36.862Z" style="fill:rgb(255,186,0);"/>
                </g>
                <g transform="matrix(0.859596,0,0,0.872797,-0.018457,-27.826668)">
                    <path d="M21.925,35.722C23.714,35.722 25.165,37.142 25.165,38.893L25.165,48.848C25.165,49.478 24.643,49.988 24,49.988L1.186,49.988C0.543,49.988 0.021,49.478 0.021,48.848L0.021,39.322C0.021,38.368 0.409,37.452 1.099,36.776C1.789,36.101 2.724,35.722 3.7,35.722L21.925,35.722ZM21.925,38.003L3.7,38.003C3.342,38.003 2.999,38.142 2.746,38.389C2.493,38.637 2.351,38.972 2.351,39.322L2.351,47.707L22.835,47.707L22.835,38.893C22.835,38.401 22.428,38.003 21.925,38.003Z"/>
                </g>
                <g transform="matrix(0.964216,0,0,0.996522,-0.142583,-29.170728)">
                    <path d="M8.6,37.213L21.757,37.213C22.352,37.213 22.922,37.44 23.343,37.845C23.764,38.249 24,38.798 24,39.37C24,41.267 24,44.038 24,46.094C24,46.824 23.698,47.525 23.161,48.041C22.624,48.558 21.896,48.848 21.137,48.848C16.754,48.848 8.432,48.848 4.05,48.848C3.29,48.848 2.562,48.558 2.025,48.041C1.488,47.525 1.186,46.824 1.186,46.094C1.186,42.654 1.186,37.213 1.186,37.213" style="fill:rgb(255,186,0);"/>
                </g>
                <g transform="matrix(0.964216,0,0,0.996522,-0.142583,-29.170728)">
                    <path d="M8.6,38.212C8.027,38.212 7.561,37.764 7.561,37.213C7.561,36.662 8.027,36.214 8.6,36.214L21.665,36.214C22.56,36.214 23.418,36.556 24.051,37.164C24.683,37.773 25.039,38.598 25.039,39.458L25.039,45.982C25.039,48.116 23.24,49.847 21.02,49.847L4.166,49.847C1.947,49.847 0.148,48.116 0.148,45.982L0.148,37.213C0.148,36.662 0.613,36.214 1.186,36.214C1.76,36.214 2.225,36.662 2.225,37.213L2.225,45.982C2.225,47.013 3.094,47.849 4.166,47.849L21.02,47.849C22.092,47.849 22.961,47.013 22.961,45.982L22.961,39.458C22.961,39.128 22.825,38.81 22.582,38.577C22.339,38.343 22.009,38.212 21.665,38.212L8.6,38.212Z"/>
                </g>
                <g transform="matrix(1.040698,0,0,1.034357,-0.48837,-30.371653)">
                    <path d="M22.568,40.894L22.568,43.925L19.578,43.925C19.185,43.925 18.808,43.769 18.531,43.491C18.253,43.213 18.097,42.836 18.097,42.444C18.097,42.421 18.097,42.398 18.097,42.375C18.097,41.982 18.253,41.605 18.531,41.327C18.808,41.05 19.185,40.894 19.578,40.894C20.88,40.894 22.568,40.894 22.568,40.894Z" style="fill:rgb(255,186,0);"/>
                </g>
                <g transform="matrix(1.040698,0,0,1.034357,-0.48837,-30.371653)">
                    <path d="M23.531,40.894L23.531,43.925C23.531,44.456 23.1,44.887 22.568,44.887L18.612,44.887C17.964,44.887 17.342,44.63 16.884,44.171C16.426,43.713 16.169,43.092 16.169,42.444L16.169,42.375C16.169,41.727 16.426,41.105 16.884,40.647C17.342,40.189 17.964,39.931 18.612,39.931L22.568,39.931C23.1,39.931 23.531,40.362 23.531,40.894ZM21.606,41.856L18.612,41.856C18.474,41.856 18.342,41.91 18.245,42.008C18.148,42.105 18.093,42.237 18.093,42.375L18.093,42.444C18.093,42.581 18.148,42.713 18.245,42.811C18.342,42.908 18.474,42.963 18.612,42.963L21.606,42.963L21.606,41.856Z"/>
                </g>
            </g>
        </g>
    </g>
</svg>
