<?xml version="1.0" encoding="UTF-8" standalone="no"?>
<!DOCTYPE svg PUBLIC "-//W3C//DTD SVG 1.1//EN" "http://www.w3.org/Graphics/SVG/1.1/DTD/svg11.dtd">
<svg width="100%" height="100%" viewBox="0 0 24 24" version="1.1" xmlns="http://www.w3.org/2000/svg" xmlns:xlink="http://www.w3.org/1999/xlink" xml:space="preserve" xmlns:serif="http://www.serif.com/" style="fill-rule:evenodd;clip-rule:evenodd;stroke-linejoin:round;stroke-miterlimit:2;">
    <g id="Artboard1" transform="matrix(1,0,0,1.00613,0,0)">
        <rect x="0" y="0" width="24" height="23.854" style="fill:none;"/>
        <clipPath id="_clip1">
            <rect x="0" y="0" width="24" height="23.854"/>
        </clipPath>
        <g clip-path="url(#_clip1)">
            <g transform="matrix(2.408001,0,0,1.743291,-29.899226,-5.426128)">
                <path d="M13.865,9.262C13.865,9.004 13.713,8.794 13.525,8.794C13.273,8.794 12.973,8.794 12.973,8.794C12.73,8.794 12.515,8.577 12.442,8.259C12.369,7.94 12.456,7.594 12.655,7.403L16.784,3.461C17.154,3.108 17.646,3.108 18.016,3.461L22.145,7.403C22.344,7.594 22.431,7.94 22.358,8.259C22.285,8.577 22.07,8.794 21.827,8.794C21.827,8.794 21.527,8.794 21.275,8.794C21.087,8.794 20.935,9.004 20.935,9.262C20.935,10.844 20.935,15.896 20.935,15.896C20.935,16.112 20.872,16.32 20.76,16.473C20.649,16.626 20.497,16.712 20.34,16.712L19.118,16.712C18.853,16.712 18.638,16.417 18.638,16.053L18.638,12.774C18.638,12.419 18.535,12.079 18.352,11.828C18.17,11.577 17.922,11.436 17.663,11.436L17.137,11.436C16.878,11.436 16.63,11.577 16.448,11.828C16.265,12.079 16.162,12.419 16.162,12.774L16.162,16.053C16.162,16.417 15.947,16.712 15.682,16.712L14.46,16.712C14.303,16.712 14.151,16.626 14.04,16.473C13.928,16.32 13.865,16.112 13.865,15.896C13.865,15.896 13.865,10.844 13.865,9.262Z"/>
            </g>
        </g>
    </g>
</svg>
