<?xml version="1.0" encoding="UTF-8" standalone="no"?>
<!DOCTYPE svg PUBLIC "-//W3C//DTD SVG 1.1//EN" "http://www.w3.org/Graphics/SVG/1.1/DTD/svg11.dtd">
<svg width="100%" height="100%" viewBox="0 0 24 24" version="1.1" xmlns="http://www.w3.org/2000/svg" xmlns:xlink="http://www.w3.org/1999/xlink" xml:space="preserve" xmlns:serif="http://www.serif.com/" style="fill-rule:evenodd;clip-rule:evenodd;stroke-linejoin:round;stroke-miterlimit:2;">
    <g transform="matrix(1,0,0,1,-108.297369,0)">
        <g id="Plus" transform="matrix(1,0,0,1.00613,108.297369,0)">
            <rect x="0" y="0" width="24" height="23.854" style="fill:none;"/>
            <g transform="matrix(0.969028,0,0,0.963125,-104.571569,0.369395)">
                <path d="M118.445,15.942C118.445,15.388 118.225,14.856 117.833,14.464C117.441,14.072 116.909,13.852 116.355,13.852L109.766,13.852C108.744,13.852 107.914,13.022 107.914,12C107.914,10.978 108.744,10.148 109.766,10.148L116.355,10.148C116.909,10.148 117.441,9.928 117.833,9.536C118.225,9.144 118.445,8.612 118.445,8.058L118.445,1.469C118.445,0.446 119.275,-0.384 120.297,-0.384C121.32,-0.384 122.15,0.446 122.15,1.469L122.15,8.058C122.15,8.612 122.37,9.144 122.762,9.536C123.154,9.928 123.685,10.148 124.24,10.148L130.829,10.148C131.851,10.148 132.681,10.978 132.681,12C132.681,13.022 131.851,13.852 130.829,13.852L124.24,13.852C123.685,13.852 123.154,14.072 122.762,14.464C122.37,14.856 122.15,15.388 122.15,15.942L122.15,22.531C122.15,23.554 121.32,24.384 120.297,24.384C119.275,24.384 118.445,23.554 118.445,22.531L118.445,15.942Z"/>
            </g>
        </g>
    </g>
</svg>
