<?xml version="1.0" encoding="UTF-8" standalone="no"?>
<!DOCTYPE svg PUBLIC "-//W3C//DTD SVG 1.1//EN" "http://www.w3.org/Graphics/SVG/1.1/DTD/svg11.dtd">
<svg width="100%" height="100%" viewBox="0 0 24 24" version="1.1" xmlns="http://www.w3.org/2000/svg" xmlns:xlink="http://www.w3.org/1999/xlink" xml:space="preserve" xmlns:serif="http://www.serif.com/" style="fill-rule:evenodd;clip-rule:evenodd;stroke-linejoin:round;stroke-miterlimit:2;">
    <g transform="matrix(1,0,0,1,-93.757253,-28.893554)">
        <g id="Flash" transform="matrix(1,0,0,1.00613,93.757253,28.893554)">
            <rect x="0" y="0" width="24" height="23.854" style="fill:none;"/>
            <g transform="matrix(0.92576,0,0,0.92012,-85.029231,-25.700099)">
                <path d="M106.72,28.894L106.719,37.684L112.311,40.005C112.575,40.114 112.777,40.336 112.861,40.609C112.946,40.882 112.905,41.178 112.749,41.418L104.95,53.418C104.719,53.773 104.284,53.935 103.877,53.818C103.47,53.701 103.188,53.332 103.181,52.908L103.036,43.481L97.234,40.462C96.983,40.331 96.803,40.097 96.74,39.821C96.678,39.544 96.74,39.255 96.91,39.029L104.989,28.314C105.238,27.984 105.67,27.85 106.063,27.981C106.455,28.112 106.72,28.48 106.72,28.894ZM104.795,31.768L99.132,39.28L104.434,42.038C104.747,42.202 104.946,42.524 104.952,42.877L105.057,49.722L110.505,41.339L105.388,39.215C105.029,39.066 104.795,38.715 104.795,38.326L104.795,31.768Z" style="fill:rgb(255,77,0);"/>
            </g>
            <g transform="matrix(1,0,0,0.993908,-93.757253,-28.717526)">
                <path d="M105.743,32.446L105.743,38.517C105.743,38.877 105.96,39.202 106.292,39.34L111.029,41.306L105.986,49.067L105.888,42.73C105.883,42.403 105.699,42.104 105.408,41.953L100.5,39.399L105.743,32.446Z" style="fill:rgb(255,77,0);"/>
            </g>
        </g>
    </g>
</svg>
