<?xml version="1.0" encoding="UTF-8" standalone="no"?>
<!DOCTYPE svg PUBLIC "-//W3C//DTD SVG 1.1//EN" "http://www.w3.org/Graphics/SVG/1.1/DTD/svg11.dtd">
<svg width="100%" height="100%" viewBox="0 0 24 24" version="1.1" xmlns="http://www.w3.org/2000/svg" xmlns:xlink="http://www.w3.org/1999/xlink" xml:space="preserve" xmlns:serif="http://www.serif.com/" style="fill-rule:evenodd;clip-rule:evenodd;stroke-linejoin:round;stroke-miterlimit:2;">
    <g transform="matrix(1,0,0,1,-121.335013,-28.893554)">
        <g id="Star" transform="matrix(1,0,0,1.00613,121.335013,28.893554)">
            <rect x="0" y="0" width="24" height="23.854" style="fill:none;"/>
            <clipPath id="_clip1">
                <rect x="0" y="0" width="24" height="23.854"/>
            </clipPath>
            <g clip-path="url(#_clip1)">
                <g transform="matrix(1.79122,0,0,1.780307,-233.237009,-60.457014)">
                    <path d="M136.169,34.605C136.318,34.335 136.602,34.168 136.911,34.168C137.219,34.168 137.503,34.335 137.653,34.605C138.19,35.571 138.878,36.808 139.207,37.399C139.329,37.618 139.541,37.771 139.786,37.82C140.45,37.95 141.839,38.222 142.924,38.435C143.227,38.494 143.473,38.712 143.568,39.005C143.664,39.299 143.593,39.62 143.383,39.846C142.63,40.656 141.666,41.693 141.205,42.188C141.035,42.371 140.954,42.62 140.984,42.868C141.066,43.54 141.236,44.945 141.369,46.043C141.406,46.349 141.275,46.651 141.025,46.832C140.776,47.013 140.448,47.045 140.169,46.915C139.165,46.449 137.882,45.853 137.268,45.568C137.041,45.463 136.78,45.463 136.553,45.568C135.939,45.853 134.656,46.449 133.653,46.915C133.373,47.045 133.045,47.013 132.796,46.832C132.547,46.651 132.415,46.349 132.452,46.043C132.585,44.945 132.755,43.54 132.837,42.868C132.867,42.62 132.786,42.371 132.616,42.188C132.155,41.693 131.192,40.656 130.438,39.846C130.229,39.62 130.158,39.299 130.253,39.005C130.348,38.712 130.595,38.494 130.897,38.435C131.983,38.222 133.371,37.95 134.035,37.82C134.281,37.771 134.492,37.618 134.614,37.399C134.943,36.808 135.631,35.571 136.169,34.605Z" style="fill:rgb(255,155,0);"/>
                </g>
            </g>
        </g>
    </g>
</svg>
